<svg width="219" height="219" viewBox="0 0 219 219" fill="none" xmlns="http://www.w3.org/2000/svg">
<path d="M132.312 27.375L123.187 54.75L114.062 27.375C113.586 25.9315 113.459 24.3957 113.692 22.8937C113.925 21.3916 114.511 19.9662 115.401 18.7346C116.292 17.5029 117.462 16.5001 118.816 15.8085C120.169 15.117 121.668 14.7564 123.187 14.7564C124.707 14.7564 126.206 15.117 127.559 15.8085C128.913 16.5001 130.083 17.5029 130.974 18.7346C131.864 19.9662 132.45 21.3916 132.683 22.8937C132.916 24.3957 132.789 25.9315 132.312 27.375ZM181.259 55.2062L155.444 68.1181L168.356 42.3035C169.551 40.1158 171.548 38.4769 173.927 37.7316C176.306 36.9864 178.881 37.1929 181.11 38.3076C183.34 39.4224 185.05 41.3586 185.881 43.7088C186.712 46.0589 186.599 48.6398 185.566 50.9084C184.633 52.7693 183.122 54.2775 181.259 55.2062ZM196.187 109.5L168.812 100.375L196.187 91.25C197.633 90.7685 199.173 90.6374 200.679 90.8675C202.185 91.0976 203.615 91.6823 204.851 92.5734C206.087 93.4645 207.094 94.6365 207.788 95.9929C208.482 97.3493 208.844 98.8513 208.844 100.375C208.844 101.899 208.482 103.401 207.788 104.757C207.094 106.113 206.087 107.285 204.851 108.177C203.615 109.068 202.185 109.652 200.679 109.882C199.173 110.113 197.633 109.981 196.187 109.5ZM78.0187 42.3035L90.9306 68.1181L65.116 55.2062C63.7474 54.5271 62.5601 53.532 61.6522 52.3031C60.7444 51.0742 60.142 49.6469 59.895 48.1391C59.648 46.6314 59.7634 45.0865 60.2317 43.6322C60.7 42.1779 61.5077 40.8559 62.588 39.7755C63.6684 38.6952 64.9903 37.8875 66.4447 37.4192C67.899 36.9509 69.4439 36.8355 70.9516 37.0825C72.4594 37.3295 73.8867 37.9319 75.1156 38.8397C76.3444 39.7476 77.3396 40.9349 78.0187 42.3035ZM162.206 112.621C163.474 108.752 164.25 104.673 164.25 100.375C164.25 77.7359 145.827 59.3125 123.187 59.3125C110.96 59.3125 100.037 64.7327 92.5549 73.2555L91.25 73C83.5422 73.0051 75.923 74.6431 68.8941 77.806C61.8652 80.9689 55.5861 85.5851 50.4704 91.3504C48.7704 90.7227 46.9276 90.5881 45.1544 90.962C43.3812 91.336 41.7498 92.2033 40.448 93.4641C39.1463 94.7248 38.2272 96.3277 37.7967 98.088C37.3662 99.8483 37.4418 101.694 38.0147 103.414C38.5349 104.938 39.4565 106.142 40.5424 107.164C37.877 113.7 36.5042 120.691 36.5 127.75L36.5182 128.9C28.6838 130.93 21.7442 135.501 16.7869 141.899C11.8297 148.296 9.13494 156.157 9.125 164.25C9.125 184.38 25.5044 200.75 45.625 200.75H146C171.158 200.75 191.625 180.283 191.625 155.125C191.625 135.698 179.361 119.182 162.206 112.621ZM123.187 77.5625C135.771 77.5625 146 87.7916 146 100.375C146 103.715 145.124 106.817 143.828 109.673C140.598 109.865 137.258 110.349 133.626 111.389C131.28 105.287 127.647 99.7608 122.976 95.1869C118.304 90.6129 112.703 87.098 106.553 84.8807C108.671 82.5797 111.242 80.7417 114.105 79.4822C116.968 78.2228 120.06 77.5692 123.187 77.5625ZM146 182.5H45.625C35.551 182.5 27.375 174.315 27.375 164.25C27.375 154.185 35.551 146 44.7855 145.945L57.7612 146.091L55.4982 135.123C54.4122 129.817 54.5194 124.335 55.8118 119.075C57.1043 113.815 59.5498 108.908 62.9714 104.709C66.393 100.511 70.7051 97.1248 75.5958 94.797C80.4866 92.4692 85.8336 91.2577 91.25 91.25L91.8796 91.1222C100.263 91.3229 108.324 94.3959 114.714 99.8272C121.104 105.259 125.435 112.719 126.983 120.961L127.33 122.658C127.87 124.531 129.004 126.177 130.561 127.348C132.118 128.52 134.014 129.154 135.962 129.155L138.6 128.945C141.447 128.124 143.792 127.75 146 127.75C161.093 127.75 173.375 140.032 173.375 155.125C173.375 170.218 161.093 182.5 146 182.5Z" fill="#FEFEFE"/>
</svg>
